# xmcd
#
# Track frame offsets: 
#        182
#        13935
#        31805
#        49002
#        66192
#        83252
#        95397
#        108970
#        126375
#        137745
#
# Disc length: 2089 seconds
#
# Revision: 12
# Processed by: cddbd v1.5.2PL0 Copyright (c) Steve Scherf et al.
# Submitted via: ExactAudioCopy v0.99pb5
#
DISCID=7a08270a
DTITLE=Chely Wright - Let Me In
DYEAR=1997
DGENRE=Country
TTITLE0=Your Woman Misses Her Man
TTITLE1=Let Me In
TTITLE2=Shut Up and Drive
TTITLE3=Emma Jean's Guitar
TTITLE4=I Already Do
TTITLE5=Just Another Heartache
TTITLE6=Is It Love Yet?
TTITLE7=Before You Lie
TTITLE8=Feelin' Single and Seein' Double
TTITLE9=10 Lb. Heart
EXTD=YEAR: 1997 ID3G: 2
EXTT0=
EXTT1=
EXTT2=
EXTT3=
EXTT4=
EXTT5=
EXTT6=
EXTT7=
EXTT8=
EXTT9=
PLAYORDER=
